# xmcd CD database file
#
# Track frame offsets:
#	150
#	53684
#	97051
#	132306
#	211048
#
# Disc length: 3093 seconds
#
# Revision: 0
# Processed by: cddbd v1.5.2PL0 Copyright (c) Steve Scherf et al.
# Submitted via: CDex 1.70beta2
#
DISCID=3f0c1305
DTITLE=Prestige All Stars - Jazz - Hard Bop - CD 070 - Prestige All Stars
DYEAR=2009
DGENRE=Jazz
TTITLE0=Anatomy (Waldron)
TTITLE1=Interplay (Waldron)
TTITLE2=Light Blue (Waldron)
TTITLE3=Soul Eyes (Waldron)
TTITLE4=C. T. H. (Heath)
EXTD=YEAR: 2009
EXTT0=
EXTT1=
EXTT2=
EXTT3=
EXTT4=
PLAYORDER=
